<?xml version="1.0" encoding="UTF-8" standalone="no"?>
<!-- Created with Inkscape (http://www.inkscape.org/) -->

<svg
   version="1.1"
   id="svg1"
   width="265.41199"
   height="248.47067"
   viewBox="0 0 265.41199 248.47067"
   sodipodi:docname="update-biru2.pdf"
   xmlns:inkscape="http://www.inkscape.org/namespaces/inkscape"
   xmlns:sodipodi="http://sodipodi.sourceforge.net/DTD/sodipodi-0.dtd"
   xmlns="http://www.w3.org/2000/svg"
   xmlns:svg="http://www.w3.org/2000/svg">
  <defs
     id="defs1">
    <clipPath
       clipPathUnits="userSpaceOnUse"
       id="clipPath24">
      <path
         d="M 0,0 H 199.059 V 186.353 H 0 Z"
         transform="translate(-91.940605,-94.430505)"
         id="path24" />
    </clipPath>
    <clipPath
       clipPathUnits="userSpaceOnUse"
       id="clipPath26">
      <path
         d="M 0,0 H 199.059 V 186.353 H 0 Z"
         transform="translate(-102.68541,-148.9351)"
         id="path26" />
    </clipPath>
    <clipPath
       clipPathUnits="userSpaceOnUse"
       id="clipPath28">
      <path
         d="M 0,0 H 199.059 V 186.353 H 0 Z"
         transform="translate(-36.504998,-52.773299)"
         id="path28" />
    </clipPath>
    <clipPath
       clipPathUnits="userSpaceOnUse"
       id="clipPath30">
      <path
         d="M 0,0 H 199.059 V 186.353 H 0 Z"
         transform="translate(-149.3316,-52.773299)"
         id="path30" />
    </clipPath>
    <clipPath
       clipPathUnits="userSpaceOnUse"
       id="clipPath32">
      <path
         d="M 0,0 H 199.059 V 186.353 H 0 Z"
         transform="translate(-148.0497,-133.0275)"
         id="path32" />
    </clipPath>
    <clipPath
       clipPathUnits="userSpaceOnUse"
       id="clipPath34">
      <path
         d="M 0,0 H 199.059 V 186.353 H 0 Z"
         transform="translate(-57.714399,-133.0213)"
         id="path34" />
    </clipPath>
  </defs>
  <sodipodi:namedview
     id="namedview1"
     pagecolor="#ffffff"
     bordercolor="#000000"
     borderopacity="0.25"
     inkscape:showpageshadow="2"
     inkscape:pageopacity="0.0"
     inkscape:pagecheckerboard="0"
     inkscape:deskcolor="#d1d1d1"
     showgrid="false">
    <inkscape:page
       x="0"
       y="0"
       inkscape:label="7"
       id="page22"
       width="265.41199"
       height="248.47067"
       margin="0"
       bleed="0" />
  </sodipodi:namedview>
  <g
     id="layer-MC0"
     inkscape:groupmode="layer"
     inkscape:label="Layer 1"
     transform="translate(-856.23601)">
    <path
       id="path23"
       d="m 0,0 c 6.65,0.679 21.212,0.738 27.624,-0.398 10.749,-1.906 20.338,-9.941 23.196,-20.575 1.54,-5.728 1.694,-23.079 1,-29.239 -0.494,-4.393 -4.418,-7.655 -8.547,-8.563 l -60.519,-0.006 c -6.547,0.911 -9.137,6.001 -9.351,12.132 -0.217,6.19 -0.127,15.759 0.419,21.894 C -25.018,-11.721 -12.613,-1.287 0,0"
       style="fill:#187fc0;fill-opacity:1;fill-rule:nonzero;stroke:none"
       transform="matrix(1.3333333,0,0,-1.3333333,978.82347,122.56333)"
       clip-path="url(#clipPath24)" />
    <path
       id="path25"
       d="M 0,0 C 31.674,2.671 35.055,-46.11 3.859,-48.017 -27.674,-49.946 -30.958,-2.61 0,0"
       style="fill:#187fc0;fill-opacity:1;fill-rule:nonzero;stroke:none"
       transform="matrix(1.3333333,0,0,-1.3333333,993.14987,49.890533)"
       clip-path="url(#clipPath26)" />
    <path
       id="path27"
       d="m 0,0 c -2.455,0.407 -5.268,3.825 -5.676,6.261 -0.649,3.877 -0.469,15.249 -0.109,19.415 0.635,7.351 7,14.309 14.031,16.209 5.294,1.432 13.056,1.013 18.423,0.687 4.016,-0.244 7.407,-0.351 11.336,-1.596 0.554,-0.597 -2.716,-2.552 -3.187,-2.977 C 30.153,33.788 23.68,24.137 23.68,17.704 V 0 Z"
       style="fill:#187fc0;fill-opacity:1;fill-rule:nonzero;stroke:none"
       transform="matrix(1.3333333,0,0,-1.3333333,904.90933,178.10627)"
       clip-path="url(#clipPath28)" />
    <path
       id="path29"
       d="m 0,0 v 16.113 c 0,9.296 -7.323,18.565 -14.223,23.955 -0.325,0.254 -0.728,-0.011 -0.503,0.907 C -8.17,42.792 -1.022,43.208 5.8,42.97 16.242,42.606 27.861,38.026 29.049,26.055 29.411,22.406 29.616,9.078 28.963,5.859 28.578,3.968 25.238,0 23.282,0 Z"
       style="fill:#187fc0;fill-opacity:1;fill-rule:nonzero;stroke:none"
       transform="matrix(1.3333333,0,0,-1.3333333,1055.3448,178.10627)"
       clip-path="url(#clipPath30)" />
    <path
       id="path31"
       d="M 0,0 C 20.232,2.343 24.975,-27.411 5.758,-31.616 -16.205,-36.422 -20.857,-2.415 0,0"
       style="fill:#187fc0;fill-opacity:1;fill-rule:nonzero;stroke:none"
       transform="matrix(1.3333333,0,0,-1.3333333,1053.6356,71.100667)"
       clip-path="url(#clipPath32)" />
    <path
       id="path33"
       d="M 0,0 C 20.257,1.515 22.699,-29.447 3.82,-31.668 -19.418,-34.401 -20.732,-1.551 0,0"
       style="fill:#187fc0;fill-opacity:1;fill-rule:nonzero;stroke:none"
       transform="matrix(1.3333333,0,0,-1.3333333,933.18853,71.108933)"
       clip-path="url(#clipPath34)" />
  </g>
</svg>
