<?xml version="1.0" encoding="UTF-8" standalone="no"?>
<!-- Created with Inkscape (http://www.inkscape.org/) -->

<svg
   version="1.1"
   id="svg1"
   width="265.41199"
   height="248.47067"
   viewBox="0 0 265.41199 248.47067"
   sodipodi:docname="update-biru2.pdf"
   xmlns:inkscape="http://www.inkscape.org/namespaces/inkscape"
   xmlns:sodipodi="http://sodipodi.sourceforge.net/DTD/sodipodi-0.dtd"
   xmlns="http://www.w3.org/2000/svg"
   xmlns:svg="http://www.w3.org/2000/svg">
  <defs
     id="defs1">
    <clipPath
       clipPathUnits="userSpaceOnUse"
       id="clipPath10">
      <path
         d="M 0,186.353 H 199.059 V 0 H 0 Z"
         transform="translate(-139.3887,-101.08871)"
         id="path10" />
    </clipPath>
    <clipPath
       clipPathUnits="userSpaceOnUse"
       id="clipPath12">
      <path
         d="M 0,186.353 H 199.059 V 0 H 0 Z"
         transform="translate(-98.281105,-101.08871)"
         id="path12" />
    </clipPath>
    <clipPath
       clipPathUnits="userSpaceOnUse"
       id="clipPath14">
      <path
         d="M 0,186.353 H 199.059 V 0 H 0 Z"
         transform="translate(-120.034,-93.190402)"
         id="path14" />
    </clipPath>
    <clipPath
       clipPathUnits="userSpaceOnUse"
       id="clipPath16">
      <path
         d="M 0,186.353 H 199.059 V 0 H 0 Z"
         transform="translate(-26.680298,-147.0963)"
         id="path16" />
    </clipPath>
    <clipPath
       clipPathUnits="userSpaceOnUse"
       id="clipPath18">
      <path
         d="M 0,186.353 H 199.059 V 0 H 0 Z"
         transform="translate(-159.95001,-153.9554)"
         id="path18" />
    </clipPath>
    <clipPath
       clipPathUnits="userSpaceOnUse"
       id="clipPath20">
      <path
         d="M 0,186.353 H 199.059 V 0 H 0 Z"
         transform="translate(-41.558604,-105.6545)"
         id="path20" />
    </clipPath>
    <clipPath
       clipPathUnits="userSpaceOnUse"
       id="clipPath22">
      <path
         d="M 0,186.353 H 199.059 V 0 H 0 Z"
         transform="translate(-147.3508,-105.6168)"
         id="path22" />
    </clipPath>
  </defs>
  <sodipodi:namedview
     id="namedview1"
     pagecolor="#ffffff"
     bordercolor="#000000"
     borderopacity="0.25"
     inkscape:showpageshadow="2"
     inkscape:pageopacity="0.0"
     inkscape:pagecheckerboard="0"
     inkscape:deskcolor="#d1d1d1"
     showgrid="false">
    <inkscape:page
       x="0"
       y="0"
       inkscape:label="6"
       id="page8"
       width="265.41199"
       height="248.47067"
       margin="41.765465 30.918667 41.765335 30.918533"
       bleed="0" />
  </sodipodi:namedview>
  <g
     id="layer-MC0"
     inkscape:groupmode="layer"
     inkscape:label="Layer 1"
     transform="translate(-570.82396)">
    <path
       id="path9"
       d="m 0,0 c -0.132,3.538 -2.097,6.749 -5.325,9.119 -1.491,1.094 -3.251,2.008 -5.225,2.69 2.888,2.42 4.726,6.051 4.726,10.115 0,7.283 -5.905,13.189 -13.188,13.189 -7.285,0 -13.189,-5.906 -13.189,-13.189 0,-4.064 1.838,-7.695 4.726,-10.115 -1.974,-0.682 -3.732,-1.596 -5.223,-2.69 -3.228,-2.369 -5.19,-5.581 -5.326,-9.119 -0.048,-1.242 0.089,-2.287 0.378,-3.178 4.933,-1.219 11.467,-1.962 18.634,-1.962 7.185,0 13.732,0.746 18.67,1.97 C -0.077,-2.28 0.046,-1.236 0,0"
       style="fill:#52bbec;fill-opacity:1;fill-rule:nonzero;stroke:none"
       transform="matrix(1.3333333,0,0,-1.3333333,756.6756,113.68573)"
       clip-path="url(#clipPath10)" />
    <path
       id="path11"
       d="m 0,0 c -0.131,3.538 -2.096,6.749 -5.326,9.119 -1.49,1.094 -3.25,2.008 -5.224,2.69 2.888,2.42 4.726,6.051 4.726,10.115 0,7.283 -5.905,13.189 -13.188,13.189 -7.284,0 -13.189,-5.906 -13.189,-13.189 0,-4.064 1.839,-7.695 4.727,-10.115 -1.975,-0.682 -3.733,-1.596 -5.224,-2.69 C -35.926,6.75 -37.889,3.538 -38.024,0 c -0.048,-1.242 0.089,-2.287 0.378,-3.178 4.933,-1.219 11.467,-1.962 18.634,-1.962 7.185,0 13.732,0.746 18.67,1.97 C -0.077,-2.28 0.046,-1.236 0,0"
       style="fill:#52bbec;fill-opacity:1;fill-rule:nonzero;stroke:none"
       transform="matrix(1.3333333,0,0,-1.3333333,701.86547,113.68573)"
       clip-path="url(#clipPath12)" />
    <path
       id="path13"
       d="m 0,0 c -0.14,3.761 -2.229,7.176 -5.662,9.695 -1.584,1.163 -3.455,2.134 -5.553,2.861 3.07,2.57 5.023,6.431 5.023,10.75 0,7.743 -6.276,14.02 -14.019,14.02 -7.744,0 -14.02,-6.277 -14.02,-14.02 0,-4.319 1.954,-8.18 5.024,-10.751 -2.099,-0.726 -3.969,-1.697 -5.552,-2.86 C -38.19,7.176 -40.278,3.761 -40.422,0 c -0.05,-1.32 0.095,-2.432 0.402,-3.377 5.245,-1.297 12.19,-2.086 19.809,-2.086 7.638,0 14.598,0.794 19.847,2.094 C -0.083,-2.422 0.048,-1.313 0,0"
       style="fill:#3c7dc7;fill-opacity:1;fill-rule:nonzero;stroke:none"
       transform="matrix(1.3333333,0,0,-1.3333333,730.86933,124.2168)"
       clip-path="url(#clipPath14)" />
    <path
       id="path15"
       d="m 0,0 c 0.242,5.625 6.961,9.814 12.028,7.064 3.436,-1.489 4.619,-5.295 4.9,-8.731 5.88,0.318 10.92,-4.784 9.826,-10.754 4.264,-0.318 8.756,-3.093 8.973,-7.765 0.102,-6.376 -0.816,-12.739 -1.82,-19.027 0.23,-2.915 -4.989,-3.17 -4.976,-0.203 0.432,6.416 2.036,12.779 1.679,19.245 -0.408,2.074 -2.66,2.239 -4.339,2.519 -0.776,-6.032 -0.676,-12.168 -1.604,-18.174 -0.191,-2.417 -4.532,-2.329 -4.785,0.153 0.19,8.553 1.387,17.055 1.654,25.608 0.471,2.672 -3.003,2.915 -4.799,3.271 -0.19,-9.979 0.255,-19.971 -0.102,-29.922 -0.025,-2.61 -4.659,-2.775 -4.812,-0.115 -0.456,11.897 -0.05,23.822 -0.291,35.735 C 11.735,0.611 10.552,1.96 9.215,2.798 6.759,3.294 4.964,0.991 5.014,-1.263 3.87,-16.062 2.61,-30.865 1.629,-45.679 1.464,-58.598 3.781,-72.801 13.3,-82.322 c 8.59,-9.035 19.002,-17.755 21.344,-30.71 0.56,-2.277 -2.863,-3.678 -4.264,-1.947 -2.189,4.607 -3.245,9.851 -6.593,13.86 -6.874,8.718 -16.508,15.261 -21.51,25.403 -5.09,10.895 -6.489,23.254 -5.445,35.152 C -2.074,-27.047 -1.094,-13.517 0,0"
       style="fill:#3c7dc7;fill-opacity:1;fill-rule:nonzero;stroke:none"
       transform="matrix(1.3333333,0,0,-1.3333333,606.39773,52.342267)"
       clip-path="url(#clipPath16)" />
    <path
       id="path17"
       d="m 0,0 c 4.799,2.978 11.646,-0.623 12.333,-6.096 0.802,-7.407 1.134,-14.853 1.795,-22.272 0.675,-12.574 3.042,-25.251 0.941,-37.827 -1.274,-7.699 -3.526,-15.476 -8.223,-21.827 -5.422,-7.572 -13.071,-13.187 -18.671,-20.606 -3.003,-3.908 -3.996,-8.833 -6.058,-13.199 -1.414,-1.757 -4.785,-0.408 -4.339,1.859 0.828,3.933 2.457,7.662 4.276,11.225 6.223,10.755 17.616,17.423 23.508,28.395 4.747,10.195 5.944,21.752 4.952,32.85 C 9.393,-34.096 8.515,-20.669 7.306,-7.292 7.294,-4.937 4.812,-4.339 3.105,-3.551 2.392,-4.989 0.789,-6.186 0.929,-7.942 0.776,-18.99 0.891,-30.05 0.801,-41.11 c 0.038,-1.909 -0.038,-4.772 -2.737,-4.569 -2.47,0.103 -2.432,2.763 -2.392,4.557 -0.013,9.151 0.127,18.289 0.037,27.44 -1.832,-0.293 -5.269,-0.586 -4.799,-3.296 0.293,-8.07 1.286,-16.112 1.667,-24.194 0.788,-2.66 -2.622,-4.327 -4.519,-2.545 -1.476,6.275 -0.928,12.841 -1.896,19.205 -1.692,-0.255 -3.971,-0.496 -4.327,-2.585 -0.343,-6.44 1.273,-12.779 1.706,-19.167 0.077,-2.558 -4.339,-2.928 -4.824,-0.573 -1.184,6.541 -2.074,13.224 -1.985,19.88 0.255,4.607 4.71,7.395 8.961,7.675 -1.108,5.982 3.946,11.072 9.826,10.78 C -4.174,-5.23 -3.168,-1.616 0,0"
       style="fill:#3c7dc7;fill-opacity:1;fill-rule:nonzero;stroke:none"
       transform="matrix(1.3333333,0,0,-1.3333333,784.09067,43.1968)"
       clip-path="url(#clipPath18)" />
    <path
       id="path19"
       d="m 0,0 c 3.538,1.972 8.413,1.972 11.416,-1.006 5.702,-5.79 10.424,-12.498 16.202,-18.226 6.096,-5.74 14.611,-10.194 16.584,-19.04 2.165,-10.652 3.616,-21.459 5.893,-32.099 0.789,-1.769 -0.23,-3.958 -2.304,-3.946 -2.049,-0.025 -2.47,2.087 -2.8,3.654 -2.265,10.156 -3.576,20.516 -5.638,30.71 -1.184,6.186 -6.733,9.762 -11.2,13.542 -7.93,6.083 -13.287,14.726 -20.288,21.739 -2.189,2.278 -7.852,0.408 -6.416,-3.232 4.354,-9.254 10.475,-17.616 15.069,-26.754 0.801,-2.737 -3.551,-4.214 -4.659,-1.654 -4.824,7.877 -9.406,15.921 -14.063,23.901 C -4.682,-8.501 -4.364,-2.43 0,0"
       style="fill:#3c7dc7;fill-opacity:1;fill-rule:nonzero;stroke:none"
       transform="matrix(1.3333333,0,0,-1.3333333,626.23547,107.598)"
       clip-path="url(#clipPath20)" />
    <path
       id="path21"
       d="m 0,0 c 4.454,3.003 11.823,1.158 13.593,-4.161 1.196,-3.716 -0.599,-7.432 -2.52,-10.54 -4.354,-7.153 -8.363,-14.522 -12.804,-21.611 -1.121,-2.495 -5.32,-1.056 -4.659,1.629 4.594,9.113 10.64,17.463 15.056,26.664 1.616,3.628 -3.984,5.677 -6.275,3.461 -7.052,-6.987 -12.397,-15.655 -20.301,-21.777 -4.302,-3.666 -9.661,-7.039 -11.098,-12.894 -2.417,-11.11 -3.525,-22.49 -6.401,-33.498 -0.688,-2.66 -5.485,-1.464 -4.671,1.171 2.164,11.098 3.856,22.298 6.07,33.397 1.566,7.127 7.712,11.556 13.02,15.91 C -12.843,-15.96 -7.701,-6.694 0,0"
       style="fill:#3c7dc7;fill-opacity:1;fill-rule:nonzero;stroke:none"
       transform="matrix(1.3333333,0,0,-1.3333333,767.29173,107.64827)"
       clip-path="url(#clipPath22)" />
  </g>
</svg>
